<?xml version="1.0" standalone="no"?>
<!DOCTYPE svg PUBLIC "-//W3C//DTD SVG 20010904//EN"
 "http://www.w3.org/TR/2001/REC-SVG-20010904/DTD/svg10.dtd">
<svg version="1.0" xmlns="http://www.w3.org/2000/svg"
 width="2245.000000pt" height="1587.000000pt" viewBox="0 0 2245.000000 1587.000000"
 preserveAspectRatio="xMidYMid meet">

<g transform="translate(0.000000,1587.000000) scale(0.100000,-0.100000)"
fill="#000000" stroke="none">
<path d="M6930 15844 c-47 -13 -113 -31 -147 -40 -65 -17 -72 -26 -49 -59 7
-11 27 -45 44 -75 16 -30 100 -176 185 -325 l156 -270 -52 -17 c-29 -9 -106
-33 -172 -53 -366 -112 -909 -302 -1110 -389 -16 -7 -78 -33 -137 -57 -60 -24
-108 -46 -108 -49 0 -3 41 -52 91 -110 51 -58 115 -132 143 -164 28 -33 71
-82 96 -111 99 -113 200 -231 214 -250 14 -19 17 -19 133 29 376 155 831 316
1168 413 66 19 126 36 133 39 11 3 9 13 -8 42 -13 20 -93 159 -178 307 -85
149 -166 288 -179 310 -30 52 -29 62 5 68 15 3 43 10 62 15 38 11 180 49 330
88 52 14 113 29 135 33 22 5 83 19 135 31 171 40 498 107 685 141 33 6 80 14
105 19 25 5 79 14 120 21 41 7 78 15 81 18 4 3 -6 44 -21 91 -15 47 -44 140
-66 208 l-38 122 -836 -1 -835 -1 -85 -24z"/>
<path d="M18700 15730 c-73 -77 -131 -142 -129 -143 2 -2 105 -53 229 -114
200 -99 361 -183 500 -261 25 -13 79 -43 120 -66 181 -101 393 -229 622 -375
98 -62 184 -111 191 -108 14 6 90 61 469 345 267 200 276 207 255 222 -127 90
-922 570 -944 570 -3 0 -32 16 -64 35 l-60 35 -528 0 -529 0 -132 -140z"/>
<path d="M12365 15563 c-3 -13 -10 -57 -16 -96 -10 -78 -16 -115 -49 -337 -12
-80 -26 -176 -31 -213 -5 -38 -11 -72 -14 -76 -6 -11 54 -21 122 -21 29 0 101
-6 160 -14 59 -8 149 -17 198 -21 50 -3 131 -13 180 -20 50 -8 128 -19 175
-25 47 -6 112 -15 145 -20 107 -17 319 -50 350 -56 102 -18 145 -25 180 -30
22 -3 44 -7 48 -8 13 -2 21 15 76 159 27 72 89 229 136 349 47 120 84 220 83
221 -7 6 -356 69 -473 86 -38 5 -110 16 -160 24 -176 27 -231 35 -335 46 -57
6 -107 12 -110 14 -5 3 -182 22 -285 31 -27 2 -90 8 -140 14 -49 5 -122 11
-162 13 -69 4 -72 3 -78 -20z"/>
<path d="M17847 14843 c-57 -60 -192 -200 -300 -312 -108 -113 -197 -207 -197
-211 0 -3 78 -44 173 -90 94 -47 228 -115 296 -152 69 -38 126 -68 128 -68 7
0 410 -234 424 -246 8 -8 18 -14 22 -14 6 0 50 -28 232 -145 28 -18 64 -40 81
-50 l30 -17 285 214 c157 117 325 242 372 277 48 36 87 67 87 70 0 3 -12 13
-28 22 -15 9 -87 55 -160 103 -74 47 -135 86 -136 86 -1 0 -85 50 -186 110
-100 61 -185 110 -187 110 -3 0 -35 18 -71 39 -168 99 -722 381 -747 381 -8 0
-61 -48 -118 -107z"/>
<path d="M9270 13932 c-14 -1 -65 -10 -115 -18 -49 -8 -126 -21 -170 -29 -66
-11 -343 -68 -435 -90 -14 -4 -43 -10 -65 -15 -66 -15 -276 -68 -340 -85 -65
-18 -130 -35 -158 -40 -9 -2 -21 -7 -27 -10 -10 -6 -8 -9 82 -165 30 -52 66
-115 80 -140 34 -62 131 -229 159 -276 13 -21 33 -56 44 -78 11 -21 24 -40 31
-43 11 -4 46 3 164 36 73 20 241 62 328 81 23 6 61 14 85 20 66 15 329 68 368
75 13 2 69 11 124 20 55 10 102 19 104 21 5 5 -6 45 -90 309 -39 121 -84 263
-101 315 -36 115 -37 116 -68 112z"/>
<path d="M16612 13547 c-65 -67 -154 -160 -197 -207 -43 -47 -94 -98 -113
-115 -18 -16 -65 -65 -103 -107 l-70 -77 183 -92 c173 -86 254 -129 323 -169
17 -10 50 -29 75 -42 124 -69 299 -174 410 -247 46 -31 89 -59 95 -63 7 -4 36
11 66 33 30 22 65 49 79 59 233 173 396 296 398 302 2 5 10 8 17 8 7 0 15 3
17 8 3 6 26 24 151 117 l26 19 -42 27 c-23 14 -100 63 -172 108 -71 44 -134
84 -140 88 -5 5 -21 14 -35 21 -14 7 -38 20 -55 31 -155 95 -691 380 -779 414
-10 4 -53 -33 -134 -116z"/>
<path d="M4764 13155 c-21 -13 -55 -33 -74 -45 -19 -11 -44 -26 -54 -33 -11
-6 -49 -31 -85 -55 -81 -52 -72 -46 -211 -142 -63 -44 -123 -85 -133 -92 -10
-7 -96 -71 -190 -142 -150 -112 -209 -159 -304 -240 l-22 -19 47 -25 c26 -14
49 -29 50 -33 2 -5 8 -9 14 -9 8 0 215 -121 433 -253 28 -16 66 -39 85 -50 19
-10 46 -27 60 -36 14 -10 50 -31 81 -48 l56 -31 29 23 c16 14 36 30 44 38 8 7
35 28 60 47 25 19 47 37 50 40 5 5 50 40 188 143 31 24 86 63 122 88 36 24 67
46 70 49 8 8 286 191 357 234 35 21 60 43 57 48 -5 8 -37 34 -173 147 -25 20
-61 50 -80 66 -20 17 -56 46 -81 65 -25 19 -53 42 -62 51 -10 10 -34 30 -55
46 -21 15 -44 33 -51 40 -7 7 -33 29 -59 50 -26 21 -58 49 -72 61 -44 41 -54
42 -97 17z"/>
<path d="M790 12149 c-210 -256 -411 -536 -572 -794 -79 -126 -198 -330 -198
-338 0 -6 37 -17 190 -57 47 -12 112 -30 145 -40 33 -9 112 -31 175 -49 63
-17 174 -47 245 -67 72 -20 157 -42 190 -50 32 -8 61 -16 63 -18 2 -2 -25 -57
-61 -122 -35 -66 -75 -144 -89 -174 -104 -220 -190 -421 -237 -555 -18 -49
-36 -99 -41 -110 -5 -11 -23 -65 -40 -120 -17 -55 -33 -106 -35 -112 -3 -7 1
-13 8 -13 7 0 41 -5 77 -10 36 -6 97 -15 135 -20 39 -5 97 -14 130 -19 33 -5
125 -19 205 -31 143 -21 170 -25 364 -55 152 -23 135 -34 184 113 46 137 76
218 98 269 8 17 14 34 14 38 0 4 7 21 14 38 8 18 42 93 74 167 73 166 205 423
232 452 11 12 20 25 20 29 0 24 284 462 405 624 85 115 204 265 239 302 16 18
28 35 25 37 -2 2 -56 25 -119 51 -63 26 -128 53 -145 60 -16 8 -70 30 -120 50
-93 38 -208 87 -260 110 -16 7 -55 23 -85 35 -30 11 -68 27 -85 34 -16 8 -91
39 -165 71 -74 31 -160 67 -190 79 -30 13 -95 40 -145 61 -49 20 -103 43 -120
50 -16 7 -79 33 -140 58 -60 25 -132 55 -160 67 -27 12 -71 30 -97 40 l-46 19
-82 -100z"/>
<path d="M5274 11325 c-101 -84 -442 -421 -550 -545 -64 -73 -80 -97 -69 -103
8 -4 65 -28 127 -53 62 -25 131 -54 153 -64 22 -10 90 -38 150 -63 61 -25 192
-79 292 -121 100 -42 186 -76 192 -76 5 0 42 37 82 83 92 105 379 389 464 458
36 29 65 55 65 59 0 3 -62 42 -137 87 -76 45 -223 132 -328 194 -104 61 -203
120 -220 129 -16 10 -54 31 -83 49 -29 17 -54 31 -56 31 -1 0 -38 -29 -82 -65z"/>
<path d="M9380 9839 c-69 -33 -162 -81 -207 -106 -78 -44 -82 -48 -65 -63 15
-14 99 -82 196 -160 17 -13 74 -61 127 -105 53 -44 127 -105 164 -135 38 -30
97 -79 133 -109 l64 -53 136 68 c76 38 139 70 141 71 7 4 -25 47 -85 114 -33
36 -93 105 -134 154 -41 49 -97 114 -125 145 -57 64 -140 160 -180 208 -15 17
-30 32 -33 32 -4 0 -63 -27 -132 -61z"/>
<path d="M19420 9876 c-25 -7 -88 -23 -140 -35 -52 -12 -117 -28 -145 -35 -27
-8 -86 -22 -130 -31 -44 -10 -114 -27 -155 -38 -41 -11 -95 -23 -120 -28 -25
-5 -72 -15 -105 -23 -33 -9 -77 -18 -97 -21 -43 -7 -43 -7 -24 -43 28 -51 86
-184 89 -200 1 -9 6 -23 11 -31 15 -24 94 -248 121 -346 9 -33 23 -78 31 -100
7 -22 17 -60 20 -85 l6 -46 67 8 c36 4 104 12 151 18 47 5 123 14 170 19 47 6
126 15 175 21 50 5 126 14 170 19 44 6 107 13 140 16 33 3 91 11 128 17 57 8
67 13 62 26 -3 10 -11 39 -16 67 -6 27 -16 68 -23 90 -7 22 -23 74 -36 115
-28 92 -52 164 -85 255 -15 39 -31 84 -36 100 -6 17 -19 46 -28 65 -10 19 -29
62 -42 95 -57 146 -70 157 -159 131z"/>
<path d="M5086 9557 c-65 -111 -186 -387 -236 -537 -15 -47 -31 -92 -34 -101
-8 -19 22 -25 329 -69 44 -7 103 -15 130 -20 28 -5 88 -14 135 -20 47 -7 115
-18 152 -26 37 -8 88 -14 113 -14 25 0 78 -7 116 -16 39 -9 72 -14 73 -12 1 1
17 48 36 102 18 55 39 111 46 125 8 14 14 30 14 34 0 12 67 158 113 245 21 40
35 77 32 81 -2 5 -17 11 -32 14 -44 8 -175 44 -204 55 -14 6 -39 12 -55 15
-16 3 -81 19 -144 37 -63 18 -144 40 -180 50 -91 25 -203 56 -286 80 -39 11
-76 20 -82 20 -6 0 -22 -19 -36 -43z"/>
<path d="M1585 9358 c-79 -240 -173 -732 -190 -1000 l-7 -96 64 -6 c34 -3 176
-8 313 -12 138 -3 354 -9 480 -13 127 -3 231 -6 232 -6 1 0 6 52 11 115 9 96
31 257 46 345 26 140 71 335 109 472 l15 52 -72 11 c-39 6 -96 15 -126 20 -30
5 -91 14 -135 20 -44 6 -105 15 -135 20 -30 5 -89 14 -130 20 -235 34 -334 49
-399 61 -69 12 -71 11 -76 -3z"/>
<path d="M11068 8691 c-36 -3 -69 -9 -73 -12 -3 -4 5 -40 18 -80 13 -41 37
-114 52 -164 15 -49 38 -119 50 -155 13 -36 39 -118 60 -182 20 -65 38 -118
40 -118 5 0 -2 94 -20 275 -8 77 -19 209 -26 293 -8 95 -17 151 -23 150 -6 0
-41 -4 -78 -7z"/>
<path d="M11330 8662 c0 -17 -4 -53 -9 -79 -5 -26 -15 -86 -21 -133 -7 -47
-18 -119 -26 -160 -7 -41 -18 -115 -24 -165 -6 -49 -14 -107 -19 -129 -5 -21
-6 -35 -1 -30 8 8 51 115 191 479 28 72 59 150 69 175 23 56 18 59 -86 67
l-74 6 0 -31z"/>
<path d="M11613 8527 c-36 -56 -100 -154 -141 -217 -41 -63 -103 -158 -137
-210 -34 -52 -65 -102 -70 -110 -9 -17 297 297 453 465 115 122 114 120 19
153 l-58 20 -66 -101z"/>
<path d="M10583 8557 c-35 -17 -63 -36 -63 -42 0 -7 21 -27 47 -46 26 -18 54
-40 63 -49 13 -13 141 -118 304 -250 68 -55 177 -145 220 -181 51 -43 34 -13
-41 72 -32 36 -93 106 -135 155 -213 247 -321 369 -327 371 -3 1 -34 -12 -68
-30z"/>
<path d="M16700 7888 c0 -101 -40 -429 -60 -498 -22 -74 -20 -76 83 -89 50 -6
142 -18 202 -26 61 -8 164 -19 230 -26 66 -6 123 -13 126 -15 3 -2 79 -10 169
-19 90 -9 166 -18 170 -20 4 -2 76 -11 161 -20 85 -8 192 -19 239 -25 47 -6
126 -15 175 -20 50 -5 128 -14 175 -20 47 -6 130 -15 184 -21 55 -5 102 -12
106 -14 3 -2 32 -5 65 -6 58 -3 59 -2 67 27 14 50 56 304 68 409 14 125 30
407 24 417 -3 5 -495 8 -1095 8 l-1089 0 0 -42z"/>
<path d="M19980 7818 c0 -121 -15 -316 -35 -443 -8 -49 -19 -125 -25 -169 -5
-43 -12 -82 -15 -86 -8 -13 -34 -173 -30 -180 3 -4 48 -10 102 -14 54 -4 136
-13 183 -21 47 -7 128 -17 180 -20 52 -4 118 -11 145 -16 28 -6 115 -16 195
-25 80 -8 170 -17 201 -21 56 -5 56 -5 61 23 6 30 31 157 47 234 9 44 19 108
27 180 2 19 8 62 14 95 10 62 30 391 30 503 l0 62 -540 0 -540 0 0 -102z"/>
<path d="M11310 7906 c0 -2 21 -12 48 -21 26 -10 56 -21 67 -26 11 -5 56 -22
100 -38 44 -16 125 -46 180 -66 55 -21 127 -48 160 -60 33 -12 115 -43 183
-69 68 -25 127 -46 132 -46 10 0 70 84 70 98 0 5 -44 19 -97 32 -54 12 -112
26 -130 32 -17 5 -43 11 -57 14 -34 6 -474 110 -546 129 -76 20 -110 26 -110
21z"/>
<path d="M11243 7890 c3 -8 44 -116 92 -240 48 -124 94 -243 102 -265 8 -22
20 -53 27 -70 7 -16 45 -111 84 -210 39 -99 109 -278 157 -397 47 -120 85
-222 85 -227 0 -30 30 -28 179 9 84 22 155 41 158 43 2 2 -23 44 -55 93 -32
49 -84 127 -114 174 -30 47 -86 132 -123 190 -37 58 -93 143 -123 190 -105
162 -209 321 -425 650 -27 41 -47 68 -44 60z"/>
<path d="M2345 7638 c-71 -3 -294 -11 -495 -17 -201 -6 -385 -14 -409 -17
l-44 -7 6 -96 c6 -86 18 -200 32 -301 5 -37 10 -59 50 -260 14 -69 27 -135 30
-148 2 -13 9 -37 14 -55 6 -18 22 -78 37 -135 l28 -104 35 7 c44 9 119 20 271
39 63 8 135 19 160 24 25 6 83 15 130 22 47 6 110 15 140 20 30 5 91 14 135
20 159 23 186 30 181 48 -87 304 -151 638 -164 857 l-7 110 -130 -7z"/>
<path d="M10049 6572 c-19 -21 -59 -67 -89 -102 -30 -35 -75 -87 -100 -115
-25 -28 -81 -93 -125 -145 -44 -51 -108 -125 -142 -164 -35 -39 -63 -76 -63
-81 0 -16 410 -165 453 -165 7 0 104 158 214 351 l202 352 -142 49 c-78 27
-149 52 -158 54 -9 3 -28 -9 -50 -34z"/>
<path d="M18420 6087 c-158 -312 -352 -598 -625 -923 -78 -93 -156 -177 -322
-345 l-154 -155 103 -55 c149 -79 253 -135 428 -229 85 -45 196 -104 245 -131
l90 -47 110 106 c259 252 458 475 655 737 25 33 51 66 58 73 6 8 68 98 136
200 124 189 207 328 311 526 65 122 66 118 -25 136 -30 6 -89 20 -130 30 -77
19 -175 43 -335 80 -148 35 -335 80 -412 99 l-73 18 -60 -120z"/>
<path d="M5989 4847 c-103 -62 -286 -170 -408 -242 -121 -71 -221 -133 -221
-137 0 -12 310 -255 450 -351 161 -112 403 -267 416 -267 6 0 18 7 25 17 8 9
36 33 64 53 27 21 59 46 70 56 11 11 67 57 125 104 58 47 112 92 121 100 9 8
56 47 104 85 49 39 96 77 105 85 8 9 33 29 53 44 36 28 37 29 19 46 -10 10
-29 23 -43 30 -92 48 -451 303 -600 427 -43 35 -81 63 -85 62 -5 0 -93 -51
-195 -112z"/>
<path d="M15675 4532 c-50 -35 -274 -172 -280 -172 -3 0 -26 -13 -52 -29 -67
-41 -241 -134 -345 -184 -49 -23 -88 -45 -88 -49 0 -6 208 -224 468 -490 69
-71 131 -128 139 -128 16 0 265 125 416 209 159 89 185 104 292 169 55 34 123
75 150 91 109 67 113 52 -41 166 -75 55 -145 108 -157 117 -160 123 -441 328
-450 328 -7 0 -30 -13 -52 -28z"/>
<path d="M11638 4083 c18 -2 45 -2 60 0 15 2 0 4 -33 4 -33 0 -45 -2 -27 -4z"/>
<path d="M10911 4064 c0 -11 3 -14 6 -6 3 7 2 16 -1 19 -3 4 -6 -2 -5 -13z"/>
<path d="M7788 3961 c-14 -20 -85 -102 -173 -201 -27 -31 -84 -96 -125 -145
-41 -49 -96 -112 -121 -140 -25 -27 -62 -71 -83 -98 l-38 -47 48 -21 c27 -11
63 -27 79 -34 51 -22 215 -85 221 -85 3 0 20 -6 37 -14 60 -26 409 -144 630
-212 48 -15 87 -30 87 -33 0 -3 -26 -51 -58 -106 -271 -469 -343 -597 -340
-601 12 -11 486 -134 639 -165 30 -6 70 -15 89 -19 113 -25 342 -69 480 -91
36 -6 82 -14 102 -19 l37 -8 21 55 c11 29 20 57 20 61 0 4 18 61 39 127 22 66
64 199 94 295 31 96 59 183 62 192 8 20 -20 28 -155 48 -47 6 -101 16 -120 21
-32 7 -147 30 -245 49 -99 19 -340 77 -537 129 -111 30 -118 33 -118 44 0 5
39 77 86 160 47 82 95 166 106 186 11 20 54 95 96 166 41 72 83 144 93 162
l18 32 -32 6 c-40 9 -561 181 -602 200 -52 23 -311 125 -318 125 -3 0 -12 -9
-19 -19z"/>
<path d="M10873 3600 c0 -25 2 -35 4 -22 2 12 2 32 0 45 -2 12 -4 2 -4 -23z"/>
<path d="M11063 3323 c93 -2 241 -2 330 0 89 1 14 3 -168 3 -181 0 -254 -2
-162 -3z"/>
<path d="M19855 3204 c-58 -55 -167 -149 -304 -264 -179 -150 -488 -382 -710
-534 -56 -37 -98 -72 -95 -77 7 -12 711 -538 728 -545 19 -7 38 3 195 114 241
169 603 442 717 541 23 20 81 70 129 111 49 41 131 113 182 159 l94 85 -28 16
c-15 9 -136 75 -268 145 -132 71 -260 140 -285 153 -134 72 -287 152 -291 152
-2 0 -31 -25 -64 -56z"/>
<path d="M4757 2632 c-52 -46 -122 -103 -195 -160 -31 -23 -59 -46 -62 -50 -3
-4 -27 -25 -55 -47 -27 -22 -55 -44 -61 -50 -7 -5 -53 -44 -105 -85 -51 -41
-111 -91 -134 -111 -42 -35 -42 -36 -21 -49 67 -43 327 -190 335 -190 5 0 11
-3 13 -7 3 -9 9 -12 208 -116 153 -79 408 -207 413 -207 3 0 66 -29 141 -65
75 -36 138 -65 141 -65 3 0 38 -15 77 -33 40 -19 172 -73 293 -122 121 -48
234 -94 252 -101 17 -8 35 -14 40 -14 4 0 42 -14 83 -31 41 -17 100 -39 130
-49 30 -10 154 -52 275 -93 205 -69 264 -88 435 -139 36 -11 76 -23 90 -28 14
-5 36 -10 49 -12 26 -3 38 13 119 162 19 36 38 70 42 75 5 6 17 26 27 45 28
50 92 162 103 180 24 37 130 228 130 233 0 3 -15 8 -32 12 -18 3 -44 10 -58
15 -14 4 -65 20 -115 35 -104 32 -470 152 -500 165 -11 4 -49 18 -85 30 -36
12 -73 26 -82 31 -10 5 -23 9 -30 9 -7 1 -31 9 -53 20 -22 11 -43 19 -48 20
-15 0 -200 76 -422 172 -206 89 -832 391 -845 407 -3 3 -21 14 -40 23 -58 29
-214 117 -327 185 -40 23 -75 43 -78 43 -3 0 -24 -17 -48 -38z"/>
<path d="M3329 1462 c-24 -21 -118 -98 -209 -172 -91 -74 -174 -142 -185 -151
-11 -9 -52 -43 -91 -75 -40 -33 -93 -76 -118 -97 -26 -21 -44 -42 -41 -47 3
-5 24 -19 48 -33 23 -13 97 -56 164 -95 331 -192 844 -458 1100 -571 48 -21
127 -57 176 -80 48 -22 89 -41 92 -41 2 0 29 -11 59 -25 30 -14 59 -25 65 -25
5 0 41 37 80 83 65 76 201 235 273 317 87 100 156 178 180 205 34 37 35 43 3
55 -15 6 -49 21 -78 34 -29 13 -88 40 -132 59 -149 65 -702 335 -730 356 -5 5
-50 30 -100 56 -49 26 -115 63 -146 81 -31 19 -59 34 -62 34 -2 0 -70 38 -151
85 -80 47 -147 85 -149 85 -2 0 -24 -17 -48 -38z"/>
<path d="M13769 1236 c-2 -3 -31 -9 -64 -15 -33 -5 -127 -21 -210 -35 -82 -14
-184 -30 -225 -36 -41 -6 -102 -15 -135 -20 -127 -19 -338 -44 -495 -60 -58
-5 -149 -14 -202 -20 -53 -5 -137 -10 -186 -10 -49 0 -134 -4 -188 -9 -222
-21 -863 -34 -1134 -24 -146 6 -269 7 -274 3 -5 -5 -15 -98 -22 -207 -7 -109
-17 -234 -23 -278 -5 -44 -12 -123 -16 -176 -6 -95 -6 -97 17 -103 13 -3 275
-6 583 -6 539 0 712 6 1170 40 521 39 1084 110 1520 191 55 10 126 21 158 25
32 4 60 11 63 15 4 7 -88 258 -126 344 -5 11 -40 101 -78 200 -67 172 -72 180
-99 183 -16 2 -31 1 -34 -2z"/>
<path d="M7054 667 c-38 -67 -82 -144 -97 -171 -16 -28 -42 -72 -58 -99 -16
-26 -29 -50 -29 -53 0 -3 -8 -18 -18 -32 -11 -15 -34 -54 -51 -87 -18 -33 -44
-78 -57 -101 l-24 -41 82 -23 c230 -65 143 -60 1055 -60 l831 0 7 29 c3 15 30
104 60 197 58 178 61 194 44 194 -9 0 -233 38 -349 60 -191 36 -403 79 -585
121 -77 17 -158 35 -180 40 -22 4 -89 21 -150 37 -60 16 -139 37 -175 46 -36
9 -85 23 -110 31 -25 8 -63 18 -86 23 l-41 9 -69 -120z"/>
</g>
</svg>
